<svg xmlns="http://www.w3.org/2000/svg" viewBox="0 0 64 64">
  <rect width="64" height="64" rx="18" fill="#e5f7fb"/>
  <path d="M32 8l19 7v14c0 12-7.6 22.9-19 27-11.4-4.1-19-15-19-27V15l19-7z" fill="#0f8fe8"/>
  <path d="M25 25c0-4.5 3.2-8 7-8s7 3.5 7 8c0 2.2-.7 4.4-1.7 6.6-.9 2.1-1.3 4.4-1.3 6.7 0 2.8-1.6 5.7-4 5.7s-4-2.9-4-5.7c0-2.3-.4-4.6-1.3-6.7A15.4 15.4 0 0 1 25 25z" fill="#fff"/>
  <path d="M27.5 28.8l3 3 6.2-6.4" fill="none" stroke="#16a8b5" stroke-width="4" stroke-linecap="round" stroke-linejoin="round"/>
</svg>
